# xmcd
# Copyright (C) 1995-1998 Ti Kan
#
# Track frame offsets:
#       150
#       17272
#       36750
#       53485
#       72197
#       88227
#       107200
#       120215
#       136045
#       169620
#
# Disc length: 2514 seconds
#
# Revision: 0
# Processed by: cddbd v1.5.2PL0 Copyright (c) Steve Scherf et al.
# Submitted via: CD-Import v1.0
#
DISCID=7009d00a
DTITLE=Madredeus - Ainda - Ost
DYEAR=1994
DGENRE=
TTITLE0=Guitarra
TTITLE1=Milagre
TTITLE2=Céu Da Moraria
TTITLE3=Miradouro De Santa Catarina
TTITLE4=A Cidade E Os Campos
TTITLE5=O Tejo
TTITLE6=Viagens Interditas
TTITLE7=Alfama
TTITLE8=Ainda
TTITLE9=Maio Maduro Maio
EXTD=
EXTT0=
EXTT1=
EXTT2=
EXTT3=
EXTT4=
EXTT5=
EXTT6=
EXTT7=
EXTT8=
EXTT9=
PLAYORDER=
